<?xml version="1.0" encoding="utf-8"?>
<!-- Generator: Adobe Illustrator 19.0.0, SVG Export Plug-In . SVG Version: 6.00 Build 0)  -->
<svg version="1.1" id="Capa_1" xmlns="http://www.w3.org/2000/svg" xmlns:xlink="http://www.w3.org/1999/xlink" x="0px" y="0px"
	 viewBox="0 91 127.6 127.6" style="enable-background:new 0 91 127.6 127.6;" xml:space="preserve">
<g>
	<g id="Up">
		<g>
			<path d="M90.1,160.7l-21.9-23.9c-1.1-1.2-2.7-1.9-4.4-1.9s-3.3,0.7-4.4,1.9l-21.9,23.9l0,0c-1,1.1-1.6,2.5-1.6,4c0,3.3,2.7,6,6,6
				c1.7,0,3.3-0.8,4.4-1.9l0,0l17.5-19.1l17.5,19.1l0,0c1.1,1.2,2.7,1.9,4.4,1.9c3.3,0,6-2.7,6-6C91.7,163.2,91.1,161.8,90.1,160.7
				L90.1,160.7z M63.8,91C28.6,91,0,119.6,0,154.8s28.6,63.8,63.8,63.8s63.8-28.6,63.8-63.8S99,91,63.8,91z M63.8,206.6
				c-28.6,0-51.8-23.3-51.8-51.8S35.2,103,63.8,103s51.8,23.3,51.8,51.8S92.4,206.6,63.8,206.6z"/>
		</g>
	</g>
</g>
</svg>
